<svg width="80" height="22" viewBox="0 0 80 22" fill="none" xmlns="http://www.w3.org/2000/svg">
<path fill-rule="evenodd" clip-rule="evenodd" d="M49.1229 0.474668C49.0878 0.856163 48.9953 1.54772 48.9721 1.60196C48.9588 1.63313 48.9542 1.38718 48.9614 1.02877C48.9696 0.624433 48.9641 0.386588 48.9461 0.360495C48.9216 0.324957 48.8938 0.326213 48.719 0.37073C48.6095 0.398625 48.497 0.433344 48.4691 0.447892C48.3382 0.516128 48.0974 1.23242 47.8783 2.20566C47.7448 2.79871 47.6955 2.95585 47.7295 2.6796C47.7902 2.18759 47.9496 1.45571 48.1149 0.910616C48.1667 0.739643 48.2031 0.593726 48.1957 0.586384C48.1755 0.566104 47.9119 0.716142 47.8381 0.789974C47.8024 0.825702 47.7343 0.961602 47.6869 1.09196C47.5847 1.37282 47.3674 2.11826 47.3427 2.27256C47.3265 2.37428 47.2911 2.42939 47.2612 2.3995C47.2202 2.35845 47.4319 1.39441 47.5374 1.1418C47.5616 1.08391 47.5748 1.02995 47.5668 1.02192C47.549 1.00413 47.2692 1.24563 46.9325 1.5694C46.7756 1.72023 46.6536 1.86513 46.6049 1.95829C46.5334 2.09525 46.4864 2.144 46.4864 2.0813C46.4864 2.03051 46.5725 1.68592 46.5989 1.63094C46.6241 1.57859 46.6223 1.57887 46.5732 1.6349C46.5442 1.66807 46.513 1.68766 46.5038 1.67849C46.4946 1.66932 46.4675 1.70879 46.4435 1.76622C46.4149 1.83475 46.3927 1.85907 46.3791 1.83702C46.3496 1.78925 46.285 1.89723 46.2438 2.06326C46.2256 2.13685 46.1928 2.23142 46.1711 2.27343C46.1494 2.31544 46.0761 2.57432 46.0083 2.84872C45.837 3.54161 45.8109 3.58993 45.7092 3.40113C45.6792 3.34545 45.6124 3.28082 45.554 3.25101C45.4348 3.19022 45.4219 3.1881 45.4219 3.22906C45.4219 3.24577 45.3623 3.36554 45.2895 3.49519C45.2167 3.62484 45.1297 3.81382 45.0962 3.91517C45.0628 4.01651 45.029 4.09941 45.0214 4.09941C45.0137 4.09941 45.0153 4.03491 45.025 3.95611L45.0426 3.81281L44.9593 3.90196C44.9135 3.95098 44.876 4.00871 44.876 4.03024C44.876 4.05178 44.8564 4.08041 44.8323 4.09386C44.7907 4.11717 44.7167 4.29129 44.6524 4.51783C44.6354 4.57744 44.6144 4.60905 44.6035 4.59139C44.5921 4.57294 44.5302 4.64371 44.4504 4.76626C44.3262 4.95727 44.2756 5.00976 44.2756 4.94769C44.2756 4.85696 44.4322 4.27846 44.6406 3.5997C44.7365 3.28734 44.7654 3.08951 44.7151 3.08951C44.6745 3.08951 44.5412 3.25701 44.4305 3.44718C44.1139 3.99096 43.271 4.70624 42.6652 4.94513C42.5376 4.99543 42.2948 5.11451 42.1257 5.20974C41.9566 5.30498 41.6007 5.49636 41.3348 5.63505C40.6726 5.98043 40.5645 6.08189 40.3244 6.5832C40.2274 6.78587 40.0932 7.07336 40.0264 7.22206C39.9595 7.37079 39.8581 7.58573 39.8011 7.69971C39.6162 8.06944 39.3723 8.73467 39.2816 9.11624C39.2627 9.19586 39.2412 9.25498 39.2338 9.24761C39.2147 9.22851 39.4088 8.30972 39.4907 8.03134C39.5285 7.90289 39.5771 7.71183 39.5987 7.60675C39.643 7.39068 39.829 6.98162 39.9875 6.7512C40.0935 6.59721 40.1737 6.40271 40.1436 6.3726C40.1349 6.36387 40.0631 6.40833 39.984 6.47143C39.784 6.631 39.4217 6.87498 39.1305 7.04617C38.7964 7.24264 38.6831 7.32289 38.4613 7.51998C38.2428 7.71418 38.109 7.88452 37.9004 8.23419C37.6101 8.72058 37.4521 9.19821 37.2489 10.2035C37.0721 11.078 36.9213 11.5486 36.6881 11.953C36.5701 12.1577 36.4026 12.3654 36.3763 12.3398C36.3671 12.3309 36.3951 12.245 36.4384 12.1488C36.5111 11.9873 36.5942 11.6816 36.6608 11.3304C36.6757 11.2518 36.7003 10.8608 36.7154 10.4616C36.7509 9.52831 36.8187 8.87294 36.9247 8.43923C36.9702 8.25308 37.147 7.81872 37.3044 7.506C37.3991 7.31792 37.4185 7.2273 37.3704 7.19755C37.339 7.17812 37.0971 7.41795 37.0971 7.46856C37.0971 7.48736 37.0713 7.52615 37.0397 7.55472C37.0081 7.5833 36.9499 7.66188 36.9104 7.72936C36.8577 7.81918 36.8359 7.83889 36.829 7.80294C36.8238 7.77595 36.8052 7.75829 36.7877 7.76369C36.7463 7.77649 36.5109 8.11877 36.4389 8.27091C36.3741 8.40776 36.3491 8.40918 36.3879 8.27383C36.434 8.11306 36.4278 8.10738 36.2714 8.16855C36.1926 8.19939 36.0252 8.27915 35.8994 8.34583C35.7736 8.41248 35.6861 8.44848 35.7049 8.42583C35.7656 8.35268 35.7084 8.38164 35.5166 8.52111C35.4134 8.59617 35.32 8.65759 35.3091 8.65759C35.2982 8.65759 35.2412 8.70366 35.1823 8.75994C34.7301 9.19278 34.4311 9.55825 34.3098 9.82623C34.2666 9.92176 34.2195 9.99103 34.2042 9.98156C34.1465 9.94589 34.1809 9.79697 34.2994 9.57048C34.367 9.44135 34.4222 9.33048 34.4222 9.32417C34.4222 9.29606 34.3293 9.31721 34.2299 9.3679C34.1071 9.43057 33.9563 9.62206 33.8866 9.80396C33.8607 9.87151 33.7816 10.0066 33.7107 10.1042C33.5571 10.3158 33.3817 10.7144 33.3019 11.0333C33.2505 11.2383 33.2423 11.369 33.229 12.1984C33.2207 12.714 33.2034 13.1261 33.1903 13.118C33.1773 13.1099 33.1667 13.0619 33.1667 13.0113C33.1667 12.9606 33.1363 12.7679 33.0992 12.583C32.9249 11.7149 32.8885 11.4027 32.9069 10.9367C32.9163 10.6965 32.9357 10.371 32.9499 10.2134C32.9641 10.0557 32.9675 9.75499 32.9575 9.54501C32.9408 9.19471 32.9365 9.17111 32.905 9.25842C32.8861 9.31077 32.8697 9.38196 32.8685 9.41662C32.8674 9.45128 32.8542 9.47208 32.8393 9.46286C32.8243 9.4536 32.7968 9.48052 32.778 9.52266C32.7593 9.56477 32.7343 9.61153 32.7224 9.62654C32.7105 9.64155 32.6705 9.69614 32.6335 9.74784C32.5545 9.85822 32.5519 9.8479 32.6091 9.65108C32.682 9.4003 32.641 9.38897 32.5203 9.62654C32.4592 9.74664 32.4004 9.88573 32.3896 9.93562C32.3788 9.98555 32.3349 10.0662 32.2922 10.1149C32.0435 10.3982 31.8052 11.0514 31.8001 11.4639C31.799 11.5492 31.7876 11.6436 31.7747 11.6736C31.7618 11.7037 31.7504 11.7202 31.7493 11.7103C31.7392 11.6167 31.553 10.7505 31.5272 10.6774C31.5086 10.6248 31.4873 10.5634 31.4797 10.5409C31.4685 10.5075 31.4639 10.5088 31.4546 10.5477C31.4483 10.574 31.427 10.5955 31.4074 10.5955C31.3685 10.5955 31.3389 10.6779 31.3383 10.7879C31.338 10.8559 31.2944 10.923 31.2506 10.923C31.2386 10.923 31.2288 10.9053 31.2288 10.8837C31.2288 10.8621 31.2146 10.8356 31.1973 10.8249C31.143 10.7913 31.1868 12.383 31.253 12.8473C31.283 13.0575 31.3152 13.3215 31.3247 13.4341L31.3419 13.6388L31.1789 13.1612C31.0892 12.8985 30.9214 12.4502 30.806 12.1649C30.6906 11.8797 30.5788 11.5972 30.5576 11.5372C30.4766 11.308 30.2321 10.8547 30.1848 10.846C30.1417 10.838 30.137 10.8659 30.137 11.13C30.137 11.4149 30.1356 11.4215 30.0856 11.3763C30.0358 11.3312 30.0333 11.3383 30 11.6101C29.9406 12.0949 30.0068 12.3577 30.5955 13.9716C30.6404 14.0945 30.6702 14.2019 30.6618 14.2103C30.6535 14.2187 30.4605 14.0427 30.233 13.8193C29.8652 13.4582 29.7926 13.3998 29.5791 13.2939C29.1879 13.0999 29.143 13.0757 29.0928 13.0312C29.0665 13.0078 28.9928 12.9801 28.9291 12.9696C28.8653 12.9591 28.7796 12.9413 28.7384 12.9301C28.68 12.9142 28.6595 12.9203 28.645 12.9582C28.6315 12.9935 28.6553 13.031 28.7335 13.0971C28.7923 13.1469 28.8296 13.1878 28.8162 13.1881C28.8028 13.1883 28.942 13.3427 29.1255 13.5313C29.3576 13.7698 29.4787 13.9172 29.5235 14.0158C29.5589 14.0937 29.6107 14.1908 29.6385 14.2315C29.6664 14.2723 29.6886 14.339 29.6879 14.3797C29.6866 14.4535 29.6835 14.4547 29.0589 14.6121C28.7136 14.6991 28.3513 14.7881 28.2537 14.8101C28.1561 14.832 27.9105 14.8922 27.7078 14.944C27.3711 15.03 26.882 15.149 26.1247 15.329C25.9671 15.3664 25.6416 15.4399 25.4014 15.4922C24.9654 15.5871 24.5215 15.6881 23.7228 15.8741C22.7789 16.0939 21.7381 16.4001 21.6552 16.4823C21.5751 16.5618 21.5742 16.7045 21.6533 16.805C21.7118 16.8794 21.716 16.8803 21.933 16.8634C22.5128 16.8182 23.7396 16.5953 25.0466 16.2978C25.453 16.2053 28.6793 15.4019 29.0316 15.3054C29.4076 15.2025 29.7779 15.1088 30.0142 15.0566C30.1765 15.0209 30.1785 15.0212 30.2394 15.0914C30.2862 15.1454 30.3008 15.1514 30.3008 15.117C30.3008 15.0482 30.3534 15.0631 30.3827 15.14C30.4182 15.2336 30.446 15.2258 30.4314 15.1264C30.4248 15.0813 30.4299 15.0445 30.4426 15.0445C30.4757 15.0445 30.5182 15.1659 30.5585 15.3752C30.5776 15.4745 30.6004 15.5674 30.6092 15.5815C30.6179 15.5957 30.6279 15.6772 30.6314 15.7626C30.6348 15.848 30.6478 15.9179 30.6603 15.9179C30.6727 15.9179 30.6839 15.9701 30.685 16.0339C30.6862 16.0977 30.6934 16.1346 30.701 16.1158C30.7274 16.0504 30.7648 16.0823 30.7649 16.1704L30.765 16.2591L30.8322 16.1772C30.8691 16.1322 30.8997 16.08 30.9003 16.0612C30.9008 16.0425 30.9126 16.0271 30.9264 16.0271C30.962 16.0271 31.0153 15.8525 31.0386 15.6592C31.0496 15.5688 31.0736 15.4212 31.0921 15.3311C31.1111 15.2383 31.1194 15.0816 31.1111 14.9694C31.1031 14.8606 31.1001 14.7716 31.1045 14.7716C31.109 14.7716 31.1524 14.8493 31.2012 14.9443C31.2499 15.0393 31.3367 15.1836 31.3941 15.265C31.7079 15.71 31.9247 16.0472 32.0771 16.3273C32.2515 16.6478 32.3863 16.832 32.4468 16.8326C32.4654 16.8328 32.5099 16.8605 32.5457 16.8941C32.5814 16.9276 32.6379 16.9551 32.6713 16.9551C32.7224 16.9551 32.7275 16.947 32.7041 16.9032C32.6889 16.8747 32.6331 16.7304 32.5802 16.5825C32.5273 16.4347 32.4607 16.2707 32.4321 16.2182C32.4036 16.1656 32.3658 16.0674 32.3482 15.9998C32.3305 15.9323 32.2864 15.8257 32.2501 15.7629C32.2138 15.7002 32.1841 15.6422 32.1841 15.634C32.1841 15.6258 32.224 15.6263 32.2728 15.6352C32.3614 15.6513 32.3613 15.6511 32.2182 15.5232C32.047 15.3701 32.0253 15.3005 32.1913 15.4364C32.2553 15.4889 32.3932 15.5818 32.4979 15.643C32.6558 15.7352 32.7129 15.7542 32.8333 15.7542C32.913 15.7542 33.0157 15.7735 33.0613 15.7971C33.1639 15.8501 33.2458 15.8303 33.1921 15.7655C33.1726 15.742 33.1121 15.7001 33.0575 15.6723C33.003 15.6444 32.9423 15.6023 32.9227 15.5787C32.8631 15.507 32.9831 15.525 33.1607 15.6146C33.4219 15.7464 33.512 15.7641 33.7418 15.7285C33.8533 15.7112 34.0121 15.6654 34.0947 15.6266L34.2448 15.556L34.0642 15.521C33.8508 15.4796 33.6789 15.3977 33.5954 15.2974C33.5623 15.2577 33.4674 15.1507 33.3846 15.0598C33.2045 14.8621 32.9967 14.5932 32.951 14.4986L32.918 14.4304L32.9766 14.4986C33.123 14.6691 33.4887 15.0331 33.6097 15.1288C33.9385 15.3887 34.5216 15.4571 35.4354 15.3429C35.7542 15.3031 35.9507 15.267 35.9507 15.2484C35.9507 15.2318 35.8801 15.1963 35.7938 15.1696C35.5616 15.0975 35.2095 14.9275 34.9869 14.7799C34.7823 14.6441 34.3768 14.273 34.2778 14.1307C34.2462 14.0853 34.344 14.1661 34.4951 14.3102C34.7864 14.588 35.1323 14.8356 35.3853 14.9475C35.4696 14.9848 35.6683 15.0587 35.827 15.1118C36.0632 15.1908 36.1556 15.2083 36.3383 15.2083C36.5233 15.2083 36.5712 15.199 36.6191 15.154C36.6957 15.0821 36.8972 15.046 37.3359 15.0256C37.5348 15.0164 37.6976 14.9984 37.6976 14.9857C37.6976 14.973 37.627 14.9624 37.5406 14.9622C37.2494 14.9614 36.6099 14.7979 36.2919 14.6428C36.0858 14.5423 35.7324 14.2997 35.7324 14.2587C35.7324 14.2198 35.751 14.2273 35.8821 14.3188C36.1069 14.4758 36.7301 14.6734 37.3155 14.7734C37.4938 14.8038 37.8704 14.7582 37.9184 14.7003C37.9358 14.6794 37.9716 14.6624 37.9981 14.6624C38.0246 14.6624 38.1084 14.6196 38.1844 14.5673C38.2604 14.5151 38.3969 14.4517 38.4877 14.4264C38.7409 14.356 38.7012 14.2992 38.3944 14.293C38.2889 14.2909 38.1365 14.2672 38.0557 14.2404C37.873 14.1797 37.2336 13.8481 37.2336 13.814C37.2336 13.78 37.2378 13.7808 37.3883 13.8465C37.6321 13.9529 37.8996 14.036 38.3526 14.1459C38.6003 14.206 38.9526 14.2919 39.1354 14.3367C39.3182 14.3815 39.6469 14.4854 39.8658 14.5676C40.2478 14.711 40.4336 14.7595 40.3031 14.6819C40.1964 14.6185 40.0722 14.5155 40.0722 14.4905C40.0722 14.4767 40.0998 14.4728 40.1336 14.4818C40.3335 14.5352 40.2792 14.5077 39.7993 14.313C38.8033 13.9088 38.5125 13.7358 37.9789 13.2302C37.7928 13.0539 37.7458 12.9949 37.7706 12.9692C37.7955 12.9434 37.8986 13.0033 38.2346 13.2388C38.5674 13.4721 38.7417 13.5736 38.9941 13.6811C39.4484 13.8748 39.7828 13.9826 39.9826 13.9999C40.1445 14.014 40.1609 14.0095 40.3432 13.9012C40.4482 13.8388 40.5438 13.7719 40.5557 13.7525C40.5675 13.7331 40.6192 13.7056 40.6706 13.6913C40.8102 13.6525 40.8108 13.5979 40.6716 13.5979C40.5177 13.5979 40.0397 13.4351 39.7486 13.2836C39.5065 13.1576 39.0623 12.8486 39.0623 12.8063C39.0623 12.7932 39.1759 12.8499 39.3148 12.9321C40.2292 13.4738 40.7104 13.577 41.2049 13.3378C41.28 13.3015 41.4274 13.2521 41.5325 13.2281C41.6375 13.2041 41.7489 13.1608 41.7799 13.1319C41.8229 13.0917 41.876 13.0793 42.005 13.0793C42.1303 13.0793 42.1739 13.0696 42.1739 13.0417C42.1739 12.9783 42.2334 12.9489 42.5094 12.8754C42.6555 12.8365 42.8701 12.769 42.9862 12.7253C43.1024 12.6816 43.3049 12.6122 43.4362 12.5711C43.6697 12.4982 43.7385 12.4387 43.6137 12.4177C43.5563 12.4081 43.5577 12.4051 43.6341 12.3721C43.7689 12.3141 43.9317 12.2352 43.9753 12.2068C43.9978 12.1921 44.1207 12.1313 44.2483 12.0716C44.5217 11.9437 44.8338 11.7392 45.2344 11.4253C45.394 11.3003 45.5659 11.1739 45.6165 11.1444C45.779 11.0497 46.0168 11.0057 46.3292 11.0123L46.6192 11.0186L46.7189 10.923C46.7737 10.8705 46.8362 10.7939 46.8577 10.7529C46.9129 10.6474 47.0482 10.5815 47.1316 10.6195C47.2135 10.6568 47.2161 10.6126 47.1354 10.5561C47.0961 10.5286 47.0143 10.5136 46.9034 10.5136C46.7771 10.5136 46.7321 10.5038 46.7321 10.4765C46.7321 10.4521 46.7806 10.4336 46.8737 10.4226C47.1264 10.3926 47.2725 10.2975 47.4984 10.0159C47.7701 9.67701 47.9297 9.50683 48.0192 9.46054C48.0601 9.43941 48.1727 9.36219 48.2695 9.28894C48.3662 9.2157 48.5345 9.11122 48.6432 9.0568C48.8158 8.97046 48.8662 8.95783 49.0379 8.95783C49.1613 8.95783 49.2948 8.97794 49.3959 9.01173C49.5468 9.06223 49.792 9.08818 49.7535 9.04959C49.7439 9.04004 49.6282 8.98597 49.4964 8.92944C49.2926 8.84207 49.2568 8.81715 49.2568 8.76281C49.2568 8.70876 49.2766 8.69468 49.3852 8.67142C49.4558 8.6563 49.5285 8.62898 49.5467 8.61072C49.5808 8.57647 49.5803 8.57598 49.4615 8.54049C49.4138 8.52627 49.4552 8.507 49.7632 8.40003C49.9244 8.34405 50.0493 8.26859 50.3364 8.05375C50.5382 7.90265 51.0153 7.54989 51.3965 7.26982C51.8122 6.96437 52.0716 6.7571 52.0447 6.7518C52.0201 6.74694 52.0001 6.72852 52.0002 6.71086C52.0006 6.67603 52.3201 6.46221 52.5185 6.364C52.6465 6.30065 53.0345 6.03991 53.1373 5.9482C53.1702 5.91891 53.1922 5.87221 53.1867 5.84358C53.1797 5.80725 53.1965 5.78694 53.2434 5.77518C53.28 5.76598 53.31 5.74832 53.31 5.73596C53.31 5.72359 53.3377 5.70476 53.3714 5.69414C53.4937 5.65566 53.8355 5.24577 53.7454 5.24577C53.7288 5.24577 53.7531 5.21398 53.7992 5.17511C53.8909 5.09795 53.9063 5.05471 53.8419 5.05471C53.8103 5.05471 53.8181 5.02824 53.8748 4.94256C53.9156 4.88087 53.9527 4.80625 53.9572 4.77672C53.9731 4.67245 54.0218 4.61953 54.1283 4.59084C54.292 4.54679 54.3199 4.48606 54.3199 4.17425V3.90643L54.2595 3.93875C54.1992 3.97104 54.1992 3.97101 54.2482 3.8962C54.2972 3.82136 54.2972 3.82133 54.2335 3.84117L54.1698 3.86102L54.238 3.8037C54.2806 3.76794 54.2919 3.74605 54.2679 3.74548C54.2384 3.74479 54.2408 3.73218 54.2785 3.69056C54.3228 3.64159 54.3245 3.61463 54.2972 3.40269C54.2806 3.27407 54.2603 3.15807 54.2522 3.14492C54.2441 3.13176 54.2007 3.11293 54.1559 3.10307C54.0497 3.07976 54.0507 3.03492 54.1574 3.03492C54.2386 3.03492 54.2401 3.03252 54.2218 2.93256C54.1952 2.78692 54.1641 2.71159 54.0697 2.56409C53.9974 2.45117 53.9747 2.43444 53.894 2.43444C53.843 2.43444 53.8013 2.42216 53.8013 2.40715C53.8013 2.39213 53.776 2.37985 53.7451 2.37985C53.7142 2.37985 53.6965 2.36757 53.7058 2.35256C53.7151 2.33754 53.7434 2.32507 53.7688 2.32485C53.7942 2.32461 53.8312 2.31413 53.8511 2.30152C53.9061 2.26663 53.6616 1.88937 53.4674 1.70961C53.2702 1.52698 53.1979 1.50482 53.0596 1.58446L52.9564 1.64386L52.973 1.55466C52.9906 1.46035 52.9908 1.45798 52.9857 1.40314C52.9815 1.35715 52.5747 1.09701 52.5071 1.09701C52.4782 1.09701 52.3875 1.13495 52.3053 1.1813C52.2232 1.22764 52.1627 1.24915 52.1708 1.22906C52.2297 1.08462 52.2287 1.08334 52.127 1.17207C52.0711 1.22087 52.0194 1.26078 52.0121 1.26078C52.0049 1.26078 52.0293 1.20081 52.0665 1.12752L52.134 0.9943L51.9754 0.936463C51.8882 0.904665 51.8037 0.878654 51.7875 0.878654C51.7432 0.878654 51.6522 1.00593 51.6156 1.11917C51.5977 1.17455 51.5176 1.30751 51.4375 1.41464C51.3574 1.52177 51.2528 1.67224 51.2051 1.74899C51.1573 1.82575 51.1065 1.88855 51.0922 1.88855C51.0612 1.88855 51.0527 1.91189 51.2941 1.33745C51.3994 1.08686 51.4815 0.853488 51.4766 0.818851C51.4689 0.764262 51.4475 0.753563 51.3175 0.738824C51.1334 0.717971 51.1327 0.718681 50.8547 1.19421C50.5567 1.70398 50.3061 2.30777 50.126 2.95012C50.1201 2.97102 50.1094 2.98224 50.1022 2.97501C50.0859 2.95877 50.2446 2.05633 50.39 1.33851C50.4498 1.04349 50.4979 0.791693 50.497 0.778974C50.4931 0.727551 50.4335 0.911325 50.3452 1.24713C50.2402 1.6462 50.2416 1.56093 50.3507 0.902236C50.431 0.417158 50.4308 0.436155 50.3556 0.446855C50.3144 0.45275 50.275 0.495493 50.2344 0.578414L50.1744 0.701239L50.1728 0.600823C50.1709 0.484794 50.1134 0.414647 50.0201 0.414647C49.9678 0.414647 49.9496 0.434818 49.9279 0.517002C49.913 0.57331 49.8127 0.972492 49.7051 1.40407C49.5642 1.96852 49.4985 2.18879 49.4708 2.18879C49.4412 2.18879 49.4355 2.15896 49.446 2.05914C49.4974 1.5712 49.4773 0.906549 49.398 0.469236L49.3658 0.291822L49.2536 0.283606L49.1413 0.275391L49.1229 0.474668Z" fill="white"/>
<path d="M0.637207 20.846V8.32145H3.89978C4.43581 8.32145 4.94092 8.36269 5.4151 8.44515C5.89959 8.52762 6.32738 8.6874 6.69848 8.92449C7.06958 9.15127 7.35821 9.48114 7.56437 9.91408C7.78085 10.3367 7.88909 10.8985 7.88909 11.5995C7.88909 12.1046 7.81177 12.5324 7.65715 12.8829C7.51283 13.223 7.30151 13.4962 7.02319 13.7024C6.75517 13.9085 6.43046 14.0477 6.04906 14.1199C6.53355 14.1817 6.94072 14.3415 7.27059 14.5992C7.60045 14.8466 7.84785 15.1816 8.01278 15.6043C8.18803 16.0269 8.27565 16.5372 8.27565 17.135C8.27565 17.7845 8.18803 18.3463 8.01278 18.8204C7.84785 19.2843 7.60561 19.6657 7.28605 19.9647C6.96649 20.2636 6.56962 20.4852 6.09544 20.6295C5.63157 20.7739 5.09554 20.846 4.48735 20.846H0.637207ZM3.40498 18.9132H3.99255C4.60074 18.9132 5.01823 18.7586 5.24501 18.4493C5.4821 18.1401 5.60065 17.6865 5.60065 17.0886C5.60065 16.6145 5.5491 16.2382 5.44602 15.9599C5.34294 15.6816 5.17285 15.4806 4.93576 15.3569C4.69867 15.2228 4.37911 15.1558 3.97709 15.1558H3.40498V18.9132ZM3.40498 13.3313H3.94617C4.36881 13.3313 4.68836 13.2694 4.90484 13.1457C5.12131 13.0117 5.26563 12.821 5.33778 12.5736C5.42025 12.3262 5.46148 12.0273 5.46148 11.6768C5.46148 11.3469 5.39963 11.0738 5.27593 10.8573C5.16254 10.6305 4.9873 10.4604 4.75021 10.347C4.52343 10.2336 4.2348 10.1769 3.88432 10.1769H3.40498V13.3313Z" fill="white"/>
<path d="M9.72742 20.846V8.32145H12.4952V18.9751H15.3712V20.846H9.72742Z" fill="white"/>
<path d="M19.9594 21.0316C19.0008 21.0316 18.2483 20.8769 17.7019 20.5677C17.1659 20.2481 16.7896 19.7894 16.5732 19.1915C16.3567 18.5834 16.2485 17.8412 16.2485 16.9649V8.32145H18.9853V17.3824C18.9853 17.6401 19.0059 17.8978 19.0472 18.1556C19.0884 18.4133 19.176 18.6246 19.31 18.7895C19.4543 18.9544 19.6708 19.0369 19.9594 19.0369C20.2584 19.0369 20.4749 18.9544 20.6089 18.7895C20.7429 18.6246 20.8253 18.4133 20.8563 18.1556C20.8975 17.8978 20.9181 17.6401 20.9181 17.3824V8.32145H23.6704V16.9649C23.6704 17.8412 23.557 18.5834 23.3302 19.1915C23.1138 19.7894 22.7375 20.2481 22.2015 20.5677C21.6655 20.8769 20.9181 21.0316 19.9594 21.0316Z" fill="white"/>
<path d="M25.4314 20.846V8.32145H31.0598V10.2079H28.1992V13.3158H30.3794V15.2332H28.1992V18.9751H31.0907V20.846H25.4314Z" fill="white"/>
<path d="M39.8908 21.0316C38.9527 21.0316 38.2105 20.8666 37.6642 20.5368C37.1178 20.2069 36.7261 19.7327 36.489 19.1142C36.2519 18.4957 36.1334 17.7587 36.1334 16.9031V12.2489C36.1334 11.383 36.2519 10.646 36.489 10.0378C36.7261 9.42959 37.1178 8.96572 37.6642 8.64616C38.2105 8.3163 38.9527 8.15137 39.8908 8.15137C40.8391 8.15137 41.5865 8.3163 42.1328 8.64616C42.6894 8.96572 43.0863 9.42959 43.3234 10.0378C43.5605 10.646 43.679 11.383 43.679 12.2489V16.9031C43.679 17.7587 43.5605 18.4957 43.3234 19.1142C43.0863 19.7327 42.6894 20.2069 42.1328 20.5368C41.5865 20.8666 40.8391 21.0316 39.8908 21.0316ZM39.8908 19.0678C40.1794 19.0678 40.3907 18.9957 40.5247 18.8514C40.6587 18.7071 40.7463 18.5215 40.7876 18.2947C40.8288 18.0679 40.8494 17.836 40.8494 17.5989V11.5686C40.8494 11.3212 40.8288 11.0892 40.7876 10.8728C40.7463 10.646 40.6587 10.4604 40.5247 10.3161C40.3907 10.1718 40.1794 10.0996 39.8908 10.0996C39.6227 10.0996 39.4217 10.1718 39.2877 10.3161C39.1537 10.4604 39.0661 10.646 39.0249 10.8728C38.9836 11.0892 38.963 11.3212 38.963 11.5686V17.5989C38.963 17.836 38.9785 18.0679 39.0094 18.2947C39.0506 18.5215 39.1331 18.7071 39.2568 18.8514C39.3908 18.9957 39.6021 19.0678 39.8908 19.0678Z" fill="white"/>
<path d="M45.3635 20.846V8.32145H48.8116C49.6569 8.32145 50.3888 8.41423 51.0073 8.59978C51.6258 8.78533 52.1051 9.12035 52.4453 9.60483C52.7958 10.079 52.971 10.7542 52.971 11.6304C52.971 12.1458 52.9298 12.6045 52.8473 13.0066C52.7648 13.4086 52.6102 13.7591 52.3834 14.058C52.1669 14.3466 51.8525 14.5889 51.4402 14.7847L53.1565 20.846H50.296L48.9198 15.2332H48.1313V20.846H45.3635ZM48.1313 13.6405H48.9044C49.2961 13.6405 49.6002 13.5735 49.8167 13.4395C50.0331 13.2952 50.1826 13.0942 50.2651 12.8365C50.3578 12.5685 50.4042 12.2489 50.4042 11.8778C50.4042 11.3418 50.3063 10.9243 50.1104 10.6254C49.9146 10.3264 49.5538 10.1769 49.0281 10.1769H48.1313V13.6405Z" fill="white"/>
<path d="M54.6504 20.846V8.32145H57.4181V20.846H54.6504Z" fill="white"/>
<path d="M62.5483 21.0316C61.6824 21.0316 60.9969 20.8512 60.4918 20.4904C59.997 20.1296 59.6413 19.6245 59.4249 18.9751C59.2187 18.3153 59.1156 17.5577 59.1156 16.7021V12.4963C59.1156 11.6098 59.229 10.8418 59.4558 10.1924C59.6826 9.54299 60.0691 9.04303 60.6155 8.69255C61.1721 8.33176 61.9246 8.15137 62.873 8.15137C63.8007 8.15137 64.5275 8.30599 65.0532 8.61524C65.5892 8.92449 65.9706 9.35228 66.1974 9.89862C66.4242 10.445 66.5376 11.0841 66.5376 11.816V12.62H63.8317V11.5995C63.8317 11.3315 63.811 11.0841 63.7698 10.8573C63.7389 10.6305 63.6564 10.4501 63.5224 10.3161C63.3987 10.1718 63.1925 10.0996 62.9039 10.0996C62.605 10.0996 62.3885 10.1821 62.2545 10.347C62.1205 10.5017 62.0329 10.6975 61.9916 10.9346C61.9607 11.1717 61.9452 11.4191 61.9452 11.6768V17.4752C61.9452 17.7535 61.971 18.0164 62.0226 18.2638C62.0844 18.5009 62.1875 18.6967 62.3318 18.8514C62.4864 18.9957 62.7029 19.0678 62.9812 19.0678C63.2699 19.0678 63.4915 18.9905 63.6461 18.8359C63.8007 18.6813 63.909 18.4803 63.9708 18.2329C64.0327 17.9855 64.0636 17.7226 64.0636 17.4443V15.9754H62.9348V14.3518H66.553V20.846H64.7285L64.5739 19.81C64.4089 20.1605 64.1667 20.4543 63.8471 20.6914C63.5276 20.9182 63.0946 21.0316 62.5483 21.0316Z" fill="white"/>
<path d="M68.3008 20.846V8.32145H71.0686V20.846H68.3008Z" fill="white"/>
<path d="M72.9361 20.846V8.32145H74.8844L77.4512 14.3518V8.32145H79.7396V20.846H77.8686L75.3019 14.3518V20.846H72.9361Z" fill="white"/>
</svg>
