<svg width="415" height="381" viewBox="0 0 415 381" fill="none" xmlns="http://www.w3.org/2000/svg">
<path d="M399.41 319.575C378.27 355.649 337.658 375.78 289.008 379.106C240.361 382.432 183.723 368.947 130.641 337.838C77.5585 306.729 38.1143 263.906 17.242 219.838C-3.63136 175.768 -5.91505 130.499 15.2258 94.4249C36.3666 58.3513 76.9782 38.2202 125.628 34.8941C174.275 31.5681 230.913 45.0535 283.995 76.1623C337.078 107.271 376.522 150.094 397.394 194.162C418.268 238.232 420.551 283.502 399.41 319.575Z" stroke="#606060" stroke-width="0.858317"/>
<g filter="url(#filter0_i_30_62)">
<circle cx="268.383" cy="145.01" r="144.626" fill="#C9956D"/>
</g>
<path d="M197.648 253.81C201.047 253.81 202.839 252.059 202.839 248.495V239.143H194.455V241.821H199.522V248.68C199.522 250.267 198.822 251.07 197.483 251.07C196.453 251.07 195.588 250.534 194.805 249.484L192.951 251.709C194.002 253.068 195.712 253.81 197.648 253.81ZM213.86 242.48V247.959C213.86 249.999 212.789 250.946 211.306 250.946C209.884 250.946 209.06 250.122 209.06 248.268V242.48H205.847V248.742C205.847 252.162 207.804 253.727 210.585 253.727C211.944 253.727 213.18 253.212 214.025 252.244V253.562H217.074V242.48H213.86ZM226.601 242.315C225.118 242.315 223.923 242.789 223.12 243.757V242.48H220.051V257.559H223.264V252.388C224.088 253.295 225.221 253.727 226.601 253.727C229.712 253.727 232.122 251.503 232.122 248.021C232.122 244.54 229.712 242.315 226.601 242.315ZM226.045 251.091C224.438 251.091 223.223 249.937 223.223 248.021C223.223 246.105 224.438 244.952 226.045 244.952C227.652 244.952 228.867 246.105 228.867 248.021C228.867 249.937 227.652 251.091 226.045 251.091ZM235.88 240.935C237.075 240.935 237.878 240.152 237.878 239.081C237.878 238.092 237.075 237.351 235.88 237.351C234.685 237.351 233.882 238.133 233.882 239.143C233.882 240.152 234.685 240.935 235.88 240.935ZM234.273 253.562H237.487V242.48H234.273V253.562ZM246.752 250.761C246.402 251.029 245.928 251.173 245.454 251.173C244.589 251.173 244.074 250.658 244.074 249.71V245.199H246.835V242.727H244.074V240.029H240.861V242.727H239.151V245.199H240.861V249.752C240.861 252.388 242.385 253.727 245.001 253.727C245.99 253.727 246.958 253.501 247.617 253.027L246.752 250.761ZM259.935 248.062C259.935 244.499 257.422 242.315 254.167 242.315C250.789 242.315 248.255 244.705 248.255 248.021C248.255 251.317 250.748 253.727 254.579 253.727C256.578 253.727 258.123 253.109 259.153 251.935L257.443 250.081C256.681 250.802 255.836 251.152 254.662 251.152C252.973 251.152 251.798 250.308 251.489 248.928H259.873C259.894 248.66 259.935 248.31 259.935 248.062ZM254.188 244.746C255.63 244.746 256.681 245.652 256.907 247.053H251.448C251.675 245.632 252.725 244.746 254.188 244.746ZM265.144 243.942V242.48H262.075V253.562H265.288V248.33C265.288 246.208 266.462 245.24 268.234 245.24C268.481 245.24 268.687 245.261 268.955 245.281V242.315C267.245 242.315 265.927 242.871 265.144 243.942Z" fill="black"/>
<defs>
<filter id="filter0_i_30_62" x="116.032" y="0.383789" width="296.978" height="296.978" filterUnits="userSpaceOnUse" color-interpolation-filters="sRGB">
<feFlood flood-opacity="0" result="BackgroundImageFix"/>
<feBlend mode="normal" in="SourceGraphic" in2="BackgroundImageFix" result="shape"/>
<feColorMatrix in="SourceAlpha" type="matrix" values="0 0 0 0 0 0 0 0 0 0 0 0 0 0 0 0 0 0 127 0" result="hardAlpha"/>
<feOffset dx="-7.72485" dy="36.9076"/>
<feGaussianBlur stdDeviation="3.86243"/>
<feComposite in2="hardAlpha" operator="arithmetic" k2="-1" k3="1"/>
<feColorMatrix type="matrix" values="0 0 0 0 0 0 0 0 0 0 0 0 0 0 0 0 0 0 0.21 0"/>
<feBlend mode="normal" in2="shape" result="effect1_innerShadow_30_62"/>
</filter>
</defs>
</svg>
