<svg width="416" height="381" viewBox="0 0 416 381" fill="none" xmlns="http://www.w3.org/2000/svg">
<path d="M399.984 319.575C378.843 355.649 338.231 375.78 289.582 379.106C240.934 382.432 184.297 368.947 131.214 337.838C78.132 306.729 38.6878 263.906 17.8155 219.838C-3.05788 175.768 -5.34156 130.499 15.7993 94.4249C36.9401 58.3513 77.5517 38.2202 126.202 34.8941C174.849 31.5681 231.486 45.0535 284.569 76.1623C337.651 107.271 377.095 150.094 397.968 194.162C418.841 238.232 421.125 283.502 399.984 319.575Z" stroke="#606060" stroke-width="0.858317"/>
<g filter="url(#filter0_i_30_64)">
<circle cx="268.957" cy="145.01" r="144.626" fill="#ED815A"/>
</g>
<path d="M211.817 253.562L211.776 239.143H209.036L203.721 248.104L198.324 239.143H195.564V253.562H198.695V245.096L202.918 252.038H204.422L208.665 244.911L208.686 253.562H211.817ZM219.482 242.315C217.71 242.315 215.918 242.789 214.703 243.654L215.856 245.899C216.66 245.261 217.875 244.869 219.049 244.869C220.779 244.869 221.603 245.673 221.603 247.053H219.049C215.671 247.053 214.291 248.413 214.291 250.37C214.291 252.285 215.836 253.727 218.431 253.727C220.058 253.727 221.212 253.192 221.809 252.182V253.562H224.817V247.238C224.817 243.881 222.86 242.315 219.482 242.315ZM219.235 251.564C218.102 251.564 217.422 251.029 217.422 250.225C217.422 249.484 217.896 248.928 219.399 248.928H221.603V250.061C221.233 251.07 220.306 251.564 219.235 251.564ZM230.795 243.942V242.48H227.725V253.562H230.939V248.33C230.939 246.208 232.113 245.24 233.885 245.24C234.132 245.24 234.338 245.261 234.606 245.281V242.315C232.896 242.315 231.578 242.871 230.795 243.942ZM240.285 253.727C243.602 253.727 245.518 252.265 245.518 250.205C245.518 245.838 238.823 247.671 238.823 245.776C238.823 245.199 239.441 244.746 240.883 244.746C241.892 244.746 242.984 244.952 244.076 245.57L245.147 243.283C244.096 242.665 242.407 242.315 240.883 242.315C237.648 242.315 235.753 243.798 235.753 245.899C235.753 250.328 242.448 248.474 242.448 250.287C242.448 250.905 241.892 251.297 240.409 251.297C239.049 251.297 237.545 250.864 236.557 250.225L235.486 252.533C236.515 253.212 238.411 253.727 240.285 253.727Z" fill="black"/>
<defs>
<filter id="filter0_i_30_64" x="116.606" y="0.383789" width="296.978" height="296.978" filterUnits="userSpaceOnUse" color-interpolation-filters="sRGB">
<feFlood flood-opacity="0" result="BackgroundImageFix"/>
<feBlend mode="normal" in="SourceGraphic" in2="BackgroundImageFix" result="shape"/>
<feColorMatrix in="SourceAlpha" type="matrix" values="0 0 0 0 0 0 0 0 0 0 0 0 0 0 0 0 0 0 127 0" result="hardAlpha"/>
<feOffset dx="-7.72485" dy="36.9076"/>
<feGaussianBlur stdDeviation="3.86243"/>
<feComposite in2="hardAlpha" operator="arithmetic" k2="-1" k3="1"/>
<feColorMatrix type="matrix" values="0 0 0 0 0 0 0 0 0 0 0 0 0 0 0 0 0 0 0.21 0"/>
<feBlend mode="normal" in2="shape" result="effect1_innerShadow_30_64"/>
</filter>
</defs>
</svg>
