<svg width="415" height="381" viewBox="0 0 415 381" fill="none" xmlns="http://www.w3.org/2000/svg">
<path d="M399.697 319.575C378.556 355.649 337.945 375.78 289.295 379.106C240.648 382.432 184.01 368.947 130.928 337.838C77.8453 306.729 38.4011 263.906 17.5288 219.838C-3.34462 175.768 -5.6283 130.499 15.5125 94.4249C36.6534 58.3513 77.265 38.2202 125.915 34.8941C174.562 31.5681 231.199 45.0535 284.282 76.1623C337.364 107.271 376.809 150.094 397.681 194.162C418.554 238.232 420.838 283.502 399.697 319.575Z" stroke="#606060" stroke-width="0.858317"/>
<g filter="url(#filter0_i_30_63)">
<circle cx="268.67" cy="145.01" r="144.626" fill="#FFF3EE"/>
</g>
<path d="M211.53 253.562L211.489 239.143H208.749L203.435 248.104L198.038 239.143H195.277V253.562H198.408V245.096L202.631 252.038H204.135L208.379 244.911L208.399 253.562H211.53ZM219.998 253.727C223.521 253.727 226.075 251.358 226.075 248.021C226.075 244.684 223.521 242.315 219.998 242.315C216.476 242.315 213.901 244.684 213.901 248.021C213.901 251.358 216.476 253.727 219.998 253.727ZM219.998 251.091C218.392 251.091 217.156 249.937 217.156 248.021C217.156 246.105 218.392 244.952 219.998 244.952C221.605 244.952 222.821 246.105 222.821 248.021C222.821 249.937 221.605 251.091 219.998 251.091ZM233.497 253.727C237.019 253.727 239.574 251.358 239.574 248.021C239.574 244.684 237.019 242.315 233.497 242.315C229.974 242.315 227.399 244.684 227.399 248.021C227.399 251.358 229.974 253.727 233.497 253.727ZM233.497 251.091C231.89 251.091 230.654 249.937 230.654 248.021C230.654 246.105 231.89 244.952 233.497 244.952C235.104 244.952 236.319 246.105 236.319 248.021C236.319 249.937 235.104 251.091 233.497 251.091ZM248.458 242.315C246.954 242.315 245.656 242.83 244.791 243.778V242.48H241.722V253.562H244.935V248.083C244.935 246.044 246.048 245.096 247.593 245.096C249.014 245.096 249.838 245.92 249.838 247.712V253.562H253.051V247.218C253.051 243.839 251.074 242.315 248.458 242.315Z" fill="black"/>
<defs>
<filter id="filter0_i_30_63" x="116.319" y="0.383789" width="296.978" height="296.978" filterUnits="userSpaceOnUse" color-interpolation-filters="sRGB">
<feFlood flood-opacity="0" result="BackgroundImageFix"/>
<feBlend mode="normal" in="SourceGraphic" in2="BackgroundImageFix" result="shape"/>
<feColorMatrix in="SourceAlpha" type="matrix" values="0 0 0 0 0 0 0 0 0 0 0 0 0 0 0 0 0 0 127 0" result="hardAlpha"/>
<feOffset dx="-7.72485" dy="36.9076"/>
<feGaussianBlur stdDeviation="3.86243"/>
<feComposite in2="hardAlpha" operator="arithmetic" k2="-1" k3="1"/>
<feColorMatrix type="matrix" values="0 0 0 0 0 0 0 0 0 0 0 0 0 0 0 0 0 0 0.21 0"/>
<feBlend mode="normal" in2="shape" result="effect1_innerShadow_30_63"/>
</filter>
</defs>
</svg>
