<svg width="415" height="381" viewBox="0 0 415 381" fill="none" xmlns="http://www.w3.org/2000/svg">
<path d="M399.41 319.55C378.269 355.623 337.658 375.754 289.008 379.081C240.361 382.407 183.723 368.921 130.641 337.812C77.5584 306.704 38.1142 263.881 17.2419 219.813C-3.63148 175.743 -5.91517 130.473 15.2257 94.3995C36.3665 58.3259 76.9781 38.1949 125.628 34.8687C174.275 31.5427 230.913 45.0281 283.995 76.1369C337.078 107.246 376.522 150.069 397.394 194.136C418.267 238.206 420.551 283.476 399.41 319.55Z" stroke="#606060" stroke-width="0.858317"/>
<g filter="url(#filter0_i_32_149)">
<circle cx="268.383" cy="144.985" r="144.626" fill="#D3B390"/>
</g>
<path d="M201.232 239.117H194.99V253.537H198.328V249.561H201.232C205.084 249.561 207.494 247.563 207.494 244.35C207.494 241.116 205.084 239.117 201.232 239.117ZM201.047 246.842H198.328V241.837H201.047C203.086 241.837 204.116 242.764 204.116 244.35C204.116 245.915 203.086 246.842 201.047 246.842ZM209.851 253.537H213.065V238.252H209.851V253.537ZM223.999 242.455V247.934C223.999 249.973 222.928 250.921 221.444 250.921C220.023 250.921 219.199 250.097 219.199 248.243V242.455H215.986V248.717C215.986 252.136 217.943 253.702 220.723 253.702C222.083 253.702 223.319 253.187 224.164 252.219V253.537H227.212V242.455H223.999ZM236.472 250.736C236.122 251.003 235.648 251.148 235.175 251.148C234.309 251.148 233.794 250.633 233.794 249.685V245.174H236.555V242.702H233.794V240.003H230.581V242.702H228.871V245.174H230.581V249.726C230.581 252.363 232.105 253.702 234.721 253.702C235.71 253.702 236.678 253.475 237.338 253.002L236.472 250.736ZM244.073 253.702C247.596 253.702 250.15 251.333 250.15 247.996C250.15 244.659 247.596 242.29 244.073 242.29C240.55 242.29 237.976 244.659 237.976 247.996C237.976 251.333 240.55 253.702 244.073 253.702ZM244.073 251.065C242.466 251.065 241.23 249.912 241.23 247.996C241.23 246.08 242.466 244.926 244.073 244.926C245.68 244.926 246.895 246.08 246.895 247.996C246.895 249.912 245.68 251.065 244.073 251.065Z" fill="black"/>
<defs>
<filter id="filter0_i_32_149" x="116.032" y="0.358398" width="296.978" height="296.978" filterUnits="userSpaceOnUse" color-interpolation-filters="sRGB">
<feFlood flood-opacity="0" result="BackgroundImageFix"/>
<feBlend mode="normal" in="SourceGraphic" in2="BackgroundImageFix" result="shape"/>
<feColorMatrix in="SourceAlpha" type="matrix" values="0 0 0 0 0 0 0 0 0 0 0 0 0 0 0 0 0 0 127 0" result="hardAlpha"/>
<feOffset dx="-7.72485" dy="36.9076"/>
<feGaussianBlur stdDeviation="3.86243"/>
<feComposite in2="hardAlpha" operator="arithmetic" k2="-1" k3="1"/>
<feColorMatrix type="matrix" values="0 0 0 0 0 0 0 0 0 0 0 0 0 0 0 0 0 0 0.21 0"/>
<feBlend mode="normal" in2="shape" result="effect1_innerShadow_32_149"/>
</filter>
</defs>
</svg>
