<svg width="417" height="381" viewBox="0 0 417 381" fill="none" xmlns="http://www.w3.org/2000/svg">
<path d="M399.697 319.55C378.556 355.623 337.945 375.754 289.295 379.081C240.648 382.407 184.01 368.921 130.928 337.812C77.8453 306.704 38.4011 263.881 17.5288 219.813C-3.34462 175.743 -5.6283 130.473 15.5125 94.3995C36.6534 58.3259 77.265 38.1949 125.915 34.8687C174.562 31.5427 231.199 45.0281 284.282 76.1369C337.364 107.246 376.809 150.069 397.681 194.136C418.554 238.206 420.838 283.476 399.697 319.55Z" stroke="#606060" stroke-width="0.858317"/>
<g filter="url(#filter0_i_152_13)">
<circle cx="272.231" cy="144.985" r="144.626" fill="#BF240D"/>
</g>
<path d="M196.639 207.321C195.156 207.321 193.961 207.795 193.157 208.763V207.486H190.088V222.565H193.302V217.394C194.126 218.301 195.259 218.733 196.639 218.733C199.749 218.733 202.159 216.508 202.159 213.027C202.159 209.546 199.749 207.321 196.639 207.321ZM196.083 216.096C194.476 216.096 193.26 214.943 193.26 213.027C193.26 211.111 194.476 209.958 196.083 209.958C197.689 209.958 198.905 211.111 198.905 213.027C198.905 214.943 197.689 216.096 196.083 216.096ZM207.38 208.948V207.486H204.311V218.568H207.524V213.336C207.524 211.214 208.698 210.246 210.47 210.246C210.717 210.246 210.923 210.267 211.191 210.287V207.321C209.481 207.321 208.163 207.877 207.38 208.948ZM218.275 218.733C221.797 218.733 224.351 216.364 224.351 213.027C224.351 209.69 221.797 207.321 218.275 207.321C214.752 207.321 212.177 209.69 212.177 213.027C212.177 216.364 214.752 218.733 218.275 218.733ZM218.275 216.096C216.668 216.096 215.432 214.943 215.432 213.027C215.432 211.111 216.668 209.958 218.275 209.958C219.881 209.958 221.097 211.111 221.097 213.027C221.097 214.943 219.881 216.096 218.275 216.096ZM236.849 218.568L232.564 212.903L236.684 207.486H233.264L230.854 210.72L228.506 207.486H224.901L229.021 212.986L224.757 218.568H228.259L230.772 215.169L233.203 218.568H236.849ZM240.015 205.941C241.21 205.941 242.014 205.158 242.014 204.087C242.014 203.098 241.21 202.356 240.015 202.356C238.821 202.356 238.017 203.139 238.017 204.149C238.017 205.158 238.821 205.941 240.015 205.941ZM238.409 218.568H241.622V207.486H238.409V218.568ZM258.798 207.321C257.129 207.321 255.687 208.001 254.801 209.134C254.019 207.918 252.7 207.321 251.155 207.321C249.734 207.321 248.498 207.815 247.674 208.763V207.486H244.605V218.568H247.818V213.006C247.818 211.029 248.827 210.102 250.249 210.102C251.588 210.102 252.35 210.926 252.35 212.718V218.568H255.564V213.006C255.564 211.029 256.573 210.102 258.015 210.102C259.313 210.102 260.116 210.926 260.116 212.718V218.568H263.33V212.224C263.33 208.845 261.434 207.321 258.798 207.321ZM270.68 207.321C268.909 207.321 267.116 207.795 265.901 208.66L267.055 210.905C267.858 210.267 269.073 209.875 270.248 209.875C271.978 209.875 272.802 210.679 272.802 212.059H270.248C266.869 212.059 265.489 213.418 265.489 215.375C265.489 217.291 267.034 218.733 269.63 218.733C271.257 218.733 272.41 218.198 273.008 217.188V218.568H276.015V212.244C276.015 208.887 274.058 207.321 270.68 207.321ZM270.433 216.57C269.3 216.57 268.62 216.035 268.62 215.231C268.62 214.49 269.094 213.933 270.598 213.933H272.802V215.066C272.431 216.076 271.504 216.57 270.433 216.57ZM195.444 240.733C197.772 240.733 199.605 239.703 200.408 237.932L197.916 236.572C197.318 237.643 196.433 238.096 195.423 238.096C193.796 238.096 192.519 236.963 192.519 235.027C192.519 233.091 193.796 231.958 195.423 231.958C196.433 231.958 197.318 232.432 197.916 233.482L200.408 232.143C199.605 230.33 197.772 229.321 195.444 229.321C191.839 229.321 189.264 231.69 189.264 235.027C189.264 238.364 191.839 240.733 195.444 240.733ZM212.974 235.068C212.974 231.505 210.461 229.321 207.206 229.321C203.828 229.321 201.294 231.711 201.294 235.027C201.294 238.323 203.786 240.733 207.618 240.733C209.616 240.733 211.161 240.115 212.191 238.941L210.481 237.087C209.719 237.808 208.875 238.158 207.7 238.158C206.011 238.158 204.837 237.314 204.528 235.933H212.912C212.933 235.666 212.974 235.315 212.974 235.068ZM207.227 231.752C208.669 231.752 209.719 232.658 209.946 234.059H204.487C204.713 232.638 205.764 231.752 207.227 231.752ZM221.849 229.321C220.346 229.321 219.048 229.836 218.183 230.784V229.486H215.113V240.568H218.327V235.089C218.327 233.05 219.439 232.102 220.984 232.102C222.406 232.102 223.23 232.926 223.23 234.718V240.568H226.443V234.224C226.443 230.845 224.466 229.321 221.849 229.321ZM235.639 237.767C235.289 238.035 234.815 238.179 234.341 238.179C233.476 238.179 232.961 237.664 232.961 236.716V232.205H235.721V229.733H232.961V227.034H229.747V229.733H228.038V232.205H229.747V236.757C229.747 239.394 231.272 240.733 233.888 240.733C234.877 240.733 235.845 240.507 236.504 240.033L235.639 237.767ZM242.778 229.321C241.007 229.321 239.214 229.795 237.999 230.66L239.153 232.905C239.956 232.267 241.171 231.875 242.346 231.875C244.076 231.875 244.9 232.679 244.9 234.059H242.346C238.967 234.059 237.587 235.418 237.587 237.375C237.587 239.291 239.132 240.733 241.728 240.733C243.355 240.733 244.508 240.198 245.106 239.188V240.568H248.113V234.244C248.113 230.887 246.156 229.321 242.778 229.321ZM242.531 238.57C241.398 238.57 240.718 238.035 240.718 237.231C240.718 236.49 241.192 235.933 242.696 235.933H244.9V237.066C244.529 238.076 243.602 238.57 242.531 238.57ZM258.973 229.486V234.965C258.973 237.005 257.902 237.952 256.419 237.952C254.998 237.952 254.174 237.128 254.174 235.274V229.486H250.96V235.748C250.96 239.168 252.917 240.733 255.698 240.733C257.058 240.733 258.293 240.218 259.138 239.25V240.568H262.187V229.486H258.973ZM268.233 230.948V229.486H265.164V240.568H268.377V235.336C268.377 233.214 269.552 232.246 271.323 232.246C271.57 232.246 271.776 232.267 272.044 232.287V229.321C270.334 229.321 269.016 229.877 268.233 230.948ZM275.562 227.941C276.757 227.941 277.56 227.158 277.56 226.087C277.56 225.098 276.757 224.356 275.562 224.356C274.367 224.356 273.564 225.139 273.564 226.149C273.564 227.158 274.367 227.941 275.562 227.941ZM273.955 240.568H277.169V229.486H273.955V240.568Z" fill="black"/>
<defs>
<filter id="filter0_i_152_13" x="119.88" y="0.358398" width="296.978" height="296.978" filterUnits="userSpaceOnUse" color-interpolation-filters="sRGB">
<feFlood flood-opacity="0" result="BackgroundImageFix"/>
<feBlend mode="normal" in="SourceGraphic" in2="BackgroundImageFix" result="shape"/>
<feColorMatrix in="SourceAlpha" type="matrix" values="0 0 0 0 0 0 0 0 0 0 0 0 0 0 0 0 0 0 127 0" result="hardAlpha"/>
<feOffset dx="-7.72485" dy="36.9076"/>
<feGaussianBlur stdDeviation="3.86243"/>
<feComposite in2="hardAlpha" operator="arithmetic" k2="-1" k3="1"/>
<feColorMatrix type="matrix" values="0 0 0 0 0 0 0 0 0 0 0 0 0 0 0 0 0 0 0.21 0"/>
<feBlend mode="normal" in2="shape" result="effect1_innerShadow_152_13"/>
</filter>
</defs>
</svg>
