<svg width="422" height="397" viewBox="0 0 422 397" fill="none" xmlns="http://www.w3.org/2000/svg">
<path d="M399.984 335.548C378.843 371.622 338.231 391.753 289.582 395.079C240.934 398.405 184.297 384.92 131.214 353.811C78.132 322.702 38.6878 279.879 17.8155 235.811C-3.05788 191.741 -5.34156 146.472 15.7993 110.398C36.9401 74.3244 77.5517 54.1934 126.202 50.8672C174.849 47.5412 231.486 61.0266 284.569 92.1355C337.651 123.244 377.095 166.067 397.968 210.135C418.841 254.205 421.125 299.475 399.984 335.548Z" stroke="#606060" stroke-width="0.858317"/>
<g filter="url(#filter0_i_54_559)">
<circle cx="228.159" cy="160.984" r="124.889" transform="rotate(-20.539 228.159 160.984)" fill="#CFC0A2"/>
</g>
<path d="M168.874 255.393C172.431 255.393 174.157 253.614 174.157 251.533C174.157 246.961 166.917 248.545 166.917 246.25C166.917 245.467 167.575 244.827 169.283 244.827C170.386 244.827 171.578 245.147 172.734 245.805L173.623 243.617C172.467 242.888 170.866 242.514 169.301 242.514C165.761 242.514 164.053 244.275 164.053 246.392C164.053 251.017 171.293 249.416 171.293 251.747C171.293 252.511 170.599 253.081 168.892 253.081C167.397 253.081 165.832 252.547 164.782 251.782L163.804 253.952C164.907 254.806 166.899 255.393 168.874 255.393ZM179.79 245.467C178.261 245.467 176.713 245.876 175.664 246.624L176.66 248.562C177.353 248.011 178.403 247.673 179.417 247.673C180.911 247.673 181.623 248.367 181.623 249.559H179.417C176.5 249.559 175.308 250.733 175.308 252.423C175.308 254.077 176.642 255.322 178.883 255.322C180.288 255.322 181.285 254.859 181.8 253.988V255.18H184.398V249.719C184.398 246.819 182.708 245.467 179.79 245.467ZM179.577 253.454C178.599 253.454 178.012 252.992 178.012 252.298C178.012 251.658 178.421 251.177 179.719 251.177H181.623V252.156C181.302 253.027 180.502 253.454 179.577 253.454ZM192.334 252.76C192.032 252.992 191.623 253.116 191.214 253.116C190.467 253.116 190.022 252.672 190.022 251.853V247.958H192.406V245.823H190.022V243.493H187.247V245.823H185.771V247.958H187.247V251.889C187.247 254.166 188.563 255.322 190.822 255.322C191.676 255.322 192.512 255.126 193.082 254.717L192.334 252.76ZM201.506 245.61V250.341C201.506 252.102 200.581 252.921 199.3 252.921C198.072 252.921 197.361 252.209 197.361 250.608V245.61H194.586V251.017C194.586 253.97 196.276 255.322 198.677 255.322C199.851 255.322 200.919 254.877 201.648 254.041V255.18H204.281V245.61H201.506ZM209.502 246.873V245.61H206.851V255.18H209.626V250.661C209.626 248.829 210.64 247.993 212.17 247.993C212.384 247.993 212.561 248.011 212.793 248.029V245.467C211.316 245.467 210.178 245.948 209.502 246.873ZM220.259 245.467C218.961 245.467 217.84 245.912 217.093 246.73V245.61H214.443V255.18H217.218V250.448C217.218 248.687 218.178 247.869 219.512 247.869C220.74 247.869 221.451 248.58 221.451 250.128V255.18H224.226V249.701C224.226 246.784 222.519 245.467 220.259 245.467Z" fill="black"/>
<path fill-rule="evenodd" clip-rule="evenodd" d="M105.606 184.356C84.7476 199.875 73.9027 214.024 77.5169 223.742C85.5087 245.231 161.173 236.92 246.518 205.18C331.863 173.44 394.57 130.29 386.578 108.801C382.78 98.5871 363.693 95.1053 335.546 97.6716C335.649 97.8422 335.705 97.9383 335.705 97.9383L338.708 103.092C357.468 102.735 369.895 106.232 372.762 113.939C380.039 133.507 322.938 172.799 245.224 201.702C167.51 230.604 98.611 238.171 91.3338 218.603C88.6924 211.501 94.5326 201.8 106.762 190.94C106.37 189.005 105.966 186.675 105.606 184.356Z" fill="#EDDFC4"/>
<path fill-rule="evenodd" clip-rule="evenodd" d="M107.037 190.246C94.1068 201.496 87.8693 211.56 90.5913 218.879C97.9069 238.55 167.17 230.943 245.294 201.888C323.418 172.834 380.819 133.334 373.504 113.663C370.555 105.735 357.543 102.238 337.942 102.79L341.212 108.402C341.212 108.402 340.907 108.522 340.32 108.753C351.515 109.738 358.82 112.893 360.856 118.367C367.518 136.279 315.248 172.247 244.109 198.704C172.97 225.161 109.901 232.088 103.239 214.176C101.376 209.166 104.123 202.743 110.604 195.511C109.147 195.873 108.342 195.966 108.272 195.757C107.908 194.665 107.467 192.617 107.037 190.246Z" fill="#EDDFC4"/>
<path fill-rule="evenodd" clip-rule="evenodd" d="M421.16 95.9399C430.94 122.238 354.2 175.045 249.756 213.888C145.312 252.731 52.7155 262.901 42.9353 236.603C37.0559 220.794 62.4433 195.405 106.32 169.229C106.505 171.217 106.73 173.384 106.972 175.518C73.5958 196.98 54.9831 217.243 59.8443 230.315C68.75 254.261 153.068 245.001 248.173 209.631C343.278 174.261 413.157 126.175 404.251 102.229C399.339 89.0218 371.49 85.9155 331.544 91.719L330.848 90.5981C330.848 90.5981 329.607 88.6177 328.229 86.52C379.033 77.4691 415.245 80.0342 421.16 95.9399Z" fill="#EDDFC4"/>
<path d="M104.27 177.364C72.7357 198.106 55.3427 217.557 60.0574 230.234C68.9522 254.151 153.165 244.902 248.153 209.576C343.141 174.25 412.933 126.224 404.038 102.307C399.15 89.1654 371.523 86.0372 331.863 91.7463C332.535 92.7864 332.982 93.5474 332.982 93.5474L334.956 96.9364C364.568 93.9875 384.722 97.4368 388.66 108.026C396.759 129.805 333.208 173.536 246.713 205.704C160.219 237.872 83.5349 246.294 75.4355 224.515C71.695 214.458 83.2357 199.718 105.26 183.598C104.905 181.594 104.561 179.414 104.27 177.364Z" fill="#EDDFC4"/>
<defs>
<filter id="filter0_i_54_559" x="96.5661" y="36.062" width="256.516" height="256.515" filterUnits="userSpaceOnUse" color-interpolation-filters="sRGB">
<feFlood flood-opacity="0" result="BackgroundImageFix"/>
<feBlend mode="normal" in="SourceGraphic" in2="BackgroundImageFix" result="shape"/>
<feColorMatrix in="SourceAlpha" type="matrix" values="0 0 0 0 0 0 0 0 0 0 0 0 0 0 0 0 0 0 127 0" result="hardAlpha"/>
<feOffset dx="-6.67061" dy="31.8707"/>
<feGaussianBlur stdDeviation="3.3353"/>
<feComposite in2="hardAlpha" operator="arithmetic" k2="-1" k3="1"/>
<feColorMatrix type="matrix" values="0 0 0 0 0 0 0 0 0 0 0 0 0 0 0 0 0 0 0.21 0"/>
<feBlend mode="normal" in2="shape" result="effect1_innerShadow_54_559"/>
</filter>
</defs>
</svg>
