<svg width="66" height="15" viewBox="0 0 66 15" fill="none" xmlns="http://www.w3.org/2000/svg">
<path fill-rule="evenodd" clip-rule="evenodd" d="M35.3156 1.39796L34.8791 1.92385L34.857 2.79534L34.8349 3.66684L34.1854 3.68967L33.5359 3.71258V4.0211V4.32963L34.1854 4.35254L34.8349 4.37537L34.8742 7.76058C34.9133 11.1173 34.9152 11.1489 35.0987 11.5219C35.4532 12.2416 36.0678 12.5505 37.1573 12.5565C37.957 12.5609 38.3785 12.4489 39.0188 12.0624C39.3081 11.8878 39.3362 11.8454 39.2659 11.691L39.1864 11.5167L38.8545 11.6636C38.4022 11.8637 37.7191 11.9354 37.3686 11.8198C36.9646 11.6864 36.6363 11.2766 36.5328 10.7766C36.4764 10.5042 36.4535 9.31636 36.4672 7.36695L36.4881 4.37537L37.6099 4.35356L38.7318 4.33168V4.0211V3.71053L37.6099 3.68864L36.4881 3.66684L36.4666 2.26945L36.4451 0.87207H36.0986C35.7673 0.87207 35.733 0.895058 35.3156 1.39796ZM6.13929 1.00433C4.54801 1.168 3.11662 1.84221 2.00296 2.95248C0.995585 3.95694 0.392623 5.04911 0.110312 6.38099C-0.0539099 7.15557 -0.0317882 8.5735 0.15676 9.36013C0.399314 10.372 1.11438 11.7667 1.62571 12.2254C1.77088 12.3556 1.94462 12.1919 6.57386 7.56219L11.3716 2.76401L11.0975 2.53248C10.2065 1.77986 8.7633 1.17603 7.51338 1.03283C6.81397 0.952686 6.67022 0.949694 6.13929 1.00433ZM18.8448 3.58166C17.9712 3.78178 17.2939 4.24043 16.9864 4.84025C16.7511 5.29914 16.7023 6.19008 16.8861 6.67125C17.1755 7.42899 17.8181 7.91535 19.3652 8.5476C21.0743 9.24598 21.5516 9.58907 21.7285 10.246C21.8411 10.664 21.7676 10.9759 21.4796 11.304C21.1214 11.7119 20.6536 11.8543 19.6719 11.8542C18.8734 11.8541 18.8135 11.842 18.2942 11.578C17.701 11.2764 17.3175 10.8221 17.1589 10.2331C17.0984 10.0082 17.0346 9.92554 16.9217 9.92554C16.7823 9.92554 16.7674 9.9812 16.769 10.4963C16.773 11.8139 17.4216 12.3418 19.2767 12.5375C21.0271 12.7221 22.4819 12.2387 23.0395 11.2873C23.3186 10.811 23.3861 9.93341 23.1841 9.40477C22.888 8.62932 22.2494 8.15004 20.5722 7.44473C18.907 6.74455 18.4337 6.37501 18.3039 5.67356C18.2111 5.17326 18.4981 4.70421 19.0897 4.38915C19.5603 4.1384 20.8114 4.14777 21.3906 4.40631C22.0274 4.69059 22.6717 5.49154 22.6717 5.99885C22.6717 6.106 22.7287 6.1467 22.8787 6.1467H23.0857L23.0293 5.50028C22.931 4.37387 22.573 3.95513 21.4515 3.65511C20.8421 3.49207 19.4118 3.45176 18.8448 3.58166ZM27.4377 3.55757C25.9621 3.77257 25.4732 4.17289 25.3728 5.24812L25.3248 5.76213L25.7423 5.73788C26.1502 5.71426 26.1624 5.70655 26.2661 5.40597C26.5131 4.69012 27.0561 4.29853 27.9285 4.20737C28.5292 4.14455 29.0103 4.26917 29.3967 4.58769C29.8808 4.98675 30.0761 5.53563 30.1925 6.82374L30.243 7.3827L29.1143 7.43064C26.3773 7.54708 25.0595 8.27065 24.9057 9.74164C24.7581 11.1545 25.5444 12.2075 26.9631 12.4968C28.015 12.7113 29.0442 12.486 29.8592 11.8629C30.0669 11.704 30.2694 11.5942 30.3091 11.6187C30.3487 11.6433 30.4948 11.8214 30.6336 12.0147C30.8831 12.3623 30.8909 12.366 31.349 12.366H31.812L31.7864 9.1186C31.7619 6.00114 31.7538 5.85022 31.5847 5.3474C31.0903 3.87648 29.616 3.24022 27.4377 3.55757ZM54.011 3.59504C53.5424 3.72108 53.1735 3.92616 52.7558 4.29294C52.585 4.44292 52.4708 4.49739 52.4511 4.43835C52.3798 4.22461 52.0724 3.91648 51.8289 3.81476C51.6516 3.74068 51.2311 3.7062 50.5038 3.7062C49.491 3.7062 49.4385 3.71399 49.4385 3.86365C49.4385 3.99197 49.491 4.0211 49.7218 4.0211C50.1899 4.0211 50.5402 4.23831 50.7284 4.64524C50.8893 4.99289 50.8957 5.13098 50.9188 8.68561L50.9429 12.366H51.7652H52.5875V8.89171V5.41738L52.8552 5.16491C53.248 4.79451 53.6627 4.6232 54.2538 4.58714C54.8436 4.55116 55.4713 4.71617 55.698 4.96676C55.833 5.11586 55.8416 5.11421 56.1796 4.87142C56.369 4.73546 56.5238 4.58092 56.5238 4.52802C56.5238 4.47504 56.3636 4.25358 56.1677 4.03575C55.8751 3.71029 55.7413 3.62464 55.416 3.55489C54.8993 3.44412 54.5337 3.45451 54.011 3.59504ZM61.6608 3.59165C61.1852 3.71974 60.6893 3.95922 60.3241 4.23736L60.0699 4.43087L59.8553 4.17588C59.5107 3.76635 59.2659 3.7062 57.9434 3.7062C56.8369 3.7062 56.76 3.7158 56.76 3.85452C56.76 3.98111 56.8345 4.00748 57.2704 4.03527C57.7021 4.06275 57.8174 4.1029 58.0187 4.29578C58.1497 4.42127 58.2985 4.64989 58.3496 4.80387C58.4134 4.99675 58.4515 6.21692 58.472 8.72497L58.5019 12.366H59.2842H60.0665V8.83338V5.30079L60.4266 4.9688C60.9411 4.49456 61.4107 4.30058 62.0346 4.30459C62.6055 4.30829 62.9415 4.44323 63.3602 4.83686C64.018 5.45533 64.0815 5.86305 64.0815 9.46767V12.366H64.8726H65.6637L65.6388 8.96115C65.6106 5.10689 65.6144 5.13318 64.9711 4.4152C64.2758 3.63905 62.8249 3.27817 61.6608 3.59165ZM39.2829 3.86365C39.2829 3.99638 39.3355 4.02118 39.6175 4.02142C40.0295 4.02173 40.4081 4.24083 40.5973 4.5884C40.722 4.81773 40.7439 5.15727 40.7865 7.5244C40.8264 9.74699 40.8577 10.2745 40.9708 10.6341C41.2676 11.5775 41.7153 12.0434 42.6497 12.3811C42.9964 12.5063 43.2927 12.5446 43.9277 12.546C44.8755 12.5481 45.4108 12.3893 46.0173 11.9264C46.2111 11.7785 46.4004 11.6575 46.4381 11.6575C46.4758 11.6575 46.6373 11.8169 46.7969 12.0118C47.0817 12.3592 47.0962 12.366 47.5544 12.366H48.0214V8.03612V3.7062H47.1948H46.3682V7.28208V10.858L46.0396 11.1393C45.5145 11.5888 45.0683 11.7687 44.4795 11.7684C43.6103 11.768 42.8395 11.2161 42.5774 10.4067C42.5187 10.2253 42.4685 9.13891 42.4389 7.40631C42.3941 4.78081 42.3866 4.67807 42.2119 4.32341C41.9514 3.79484 41.6831 3.7062 40.3441 3.7062C39.3354 3.7062 39.2829 3.71399 39.2829 3.86365ZM7.87992 8.93281L3.20494 13.6083L3.81602 13.8983C5.72181 14.8026 7.95589 14.7748 9.83941 13.8233C11.1503 13.161 12.1659 12.1234 12.8593 10.7381C13.6216 9.2152 13.7483 7.25075 13.19 5.60955C13.0341 5.15153 12.6265 4.25728 12.5736 4.25728C12.5633 4.25728 10.4512 6.36123 7.87992 8.93281ZM30.2294 9.36312V10.6114L29.9519 10.9748C29.4547 11.626 28.7358 11.8982 27.955 11.7307C27.2 11.5689 26.7436 11.0707 26.6369 10.2922C26.5603 9.73376 26.6608 9.39918 27.0227 9.0065C27.5854 8.39606 28.3339 8.13287 29.5405 8.12138L30.2294 8.11485V9.36312Z" fill="white"/>
</svg>
