<svg width="171" height="64" viewBox="0 0 171 64" fill="none" xmlns="http://www.w3.org/2000/svg">
<path d="M100.372 20.9077C100.924 23.2973 100.213 25.9156 98.3409 28.6375C96.4683 31.3598 93.4626 34.1395 89.5287 36.8099C81.6637 42.1487 70.1785 46.9898 56.9377 50.0459C43.697 53.102 31.2518 53.7842 21.8426 52.4324C17.1362 51.7563 13.2163 50.5752 10.3401 48.9489C7.46425 47.3229 5.67794 45.2809 5.12639 42.8913C4.57485 40.5017 5.2855 37.8834 7.15781 35.1614C9.03037 32.4392 12.0361 29.6595 15.97 26.9891C23.835 21.6503 35.3202 16.8091 48.561 13.753C61.8017 10.6969 74.2469 10.0148 83.6561 11.3665C88.3625 12.0426 92.2823 13.2238 95.1586 14.85C98.0344 16.476 99.8207 18.518 100.372 20.9077Z" stroke="white"/>
<path d="M26.4931 26.9014C26.256 28.1471 26.6698 29.5117 27.737 30.9413C28.8046 32.3713 30.4954 33.8213 32.7064 35.2001C37.1253 37.9559 43.5297 40.37 50.8709 41.7673C58.2121 43.1646 65.0555 43.272 70.1779 42.3323C72.7408 41.8621 74.846 41.1347 76.3643 40.1968C77.8821 39.2593 78.7682 38.1421 79.0053 36.8964C79.2424 35.6507 78.8287 34.2862 77.7614 32.8565C76.6938 31.4266 75.003 29.9766 72.7921 28.5978C68.3731 25.842 61.9687 23.4279 54.6275 22.0306C47.2863 20.6333 40.4429 20.5258 35.3205 21.4656C32.7577 21.9357 30.6524 22.6632 29.1342 23.601C27.6163 24.5386 26.7302 25.6557 26.4931 26.9014Z" stroke="white"/>
<circle cx="52.7488" cy="31.8989" r="3.875" transform="rotate(-12.9968 52.7488 31.8989)" fill="white"/>
<path d="M112.522 27.2517L108.757 16.179H109.611L113.186 26.7614H112.759L116.444 16.179H117.22L120.874 26.7614H120.462L124.069 16.179H124.86L121.111 27.2517H120.257L116.713 17.0174H116.919L113.376 27.2517H112.522Z" fill="white"/>
<path d="M131.503 27.2517V25.3694L131.471 25.0846V21.9843C131.471 21.2145 131.26 20.6292 130.839 20.2285C130.427 19.8277 129.821 19.6274 129.019 19.6274C128.45 19.6274 127.917 19.7276 127.422 19.9279C126.937 20.1177 126.52 20.3656 126.172 20.6714L125.777 20.1019C126.188 19.7328 126.684 19.4481 127.264 19.2477C127.844 19.0368 128.45 18.9314 129.083 18.9314C130.106 18.9314 130.891 19.1897 131.44 19.7065C131.988 20.2232 132.262 20.993 132.262 22.0159V27.2517H131.503ZM128.529 27.315C127.917 27.315 127.385 27.2201 126.931 27.0303C126.489 26.8299 126.146 26.5505 125.903 26.1919C125.671 25.8334 125.555 25.4221 125.555 24.9581C125.555 24.5363 125.65 24.1566 125.84 23.8192C126.04 23.4712 126.367 23.1917 126.821 22.9808C127.274 22.7594 127.881 22.6486 128.64 22.6486H131.677V23.2656H128.656C127.801 23.2656 127.2 23.4237 126.852 23.7401C126.515 24.0565 126.346 24.4519 126.346 24.9265C126.346 25.4537 126.547 25.8756 126.947 26.1919C127.348 26.5083 127.912 26.6665 128.64 26.6665C129.336 26.6665 129.921 26.5083 130.396 26.1919C130.881 25.8756 131.239 25.4168 131.471 24.8157L131.693 25.3536C131.471 25.9546 131.092 26.4345 130.554 26.793C130.027 27.141 129.352 27.315 128.529 27.315Z" fill="white"/>
<path d="M139.554 18.9314C140.229 18.9314 140.815 19.0632 141.31 19.3268C141.816 19.5799 142.207 19.9701 142.481 20.4974C142.766 21.0141 142.908 21.6574 142.908 22.4272V27.2517H142.117V22.4905C142.117 21.5625 141.88 20.8559 141.405 20.3708C140.941 19.8857 140.287 19.6432 139.444 19.6432C138.8 19.6432 138.242 19.775 137.767 20.0386C137.292 20.3023 136.929 20.6714 136.676 21.1459C136.433 21.6205 136.312 22.1899 136.312 22.8543V27.2517H135.521V18.9946H136.28V21.2883L136.169 21.0352C136.422 20.3814 136.839 19.8699 137.419 19.5008C137.999 19.1212 138.711 18.9314 139.554 18.9314Z" fill="white"/>
<path d="M149.344 27.315C148.574 27.315 147.878 27.141 147.256 26.793C146.644 26.4345 146.159 25.9388 145.8 25.3061C145.442 24.6734 145.262 23.9457 145.262 23.1232C145.262 22.2901 145.442 21.5625 145.8 20.9403C146.159 20.3076 146.644 19.8172 147.256 19.4692C147.878 19.1106 148.574 18.9314 149.344 18.9314C150.071 18.9314 150.725 19.1001 151.305 19.4376C151.896 19.775 152.36 20.2548 152.697 20.877C153.045 21.4992 153.219 22.2479 153.219 23.1232C153.219 23.9774 153.05 24.7208 152.713 25.3536C152.375 25.9863 151.911 26.4714 151.321 26.8088C150.741 27.1463 150.082 27.315 149.344 27.315ZM149.391 26.6032C150.024 26.6032 150.588 26.4608 151.084 26.1761C151.59 25.8808 151.985 25.4696 152.27 24.9423C152.565 24.415 152.713 23.8086 152.713 23.1232C152.713 22.4272 152.565 21.8208 152.27 21.3041C151.985 20.7768 151.59 20.3708 151.084 20.0861C150.588 19.7908 150.024 19.6432 149.391 19.6432C148.758 19.6432 148.189 19.7908 147.683 20.0861C147.187 20.3708 146.792 20.7768 146.496 21.3041C146.212 21.8208 146.069 22.4272 146.069 23.1232C146.069 23.8086 146.212 24.415 146.496 24.9423C146.792 25.4696 147.187 25.8808 147.683 26.1761C148.189 26.4608 148.758 26.6032 149.391 26.6032ZM152.729 27.2517V24.5468L152.871 23.1074L152.713 21.6679V15.5146H153.504V27.2517H152.729Z" fill="white"/>
<path d="M160.192 27.315C159.359 27.315 158.62 27.1357 157.977 26.7772C157.344 26.4186 156.844 25.923 156.474 25.2903C156.116 24.6576 155.937 23.9352 155.937 23.1232C155.937 22.3006 156.105 21.5783 156.443 20.9561C156.791 20.3234 157.265 19.8277 157.866 19.4692C158.468 19.1106 159.142 18.9314 159.891 18.9314C160.64 18.9314 161.31 19.1054 161.9 19.4534C162.501 19.8014 162.97 20.2917 163.308 20.9245C163.656 21.5466 163.83 22.269 163.83 23.0916C163.83 23.1232 163.825 23.1601 163.814 23.2023C163.814 23.2339 163.814 23.2708 163.814 23.313H156.522V22.6961H163.387L163.071 22.9966C163.081 22.3534 162.944 21.7786 162.659 21.2725C162.385 20.7557 162.011 20.355 161.536 20.0703C161.062 19.775 160.513 19.6274 159.891 19.6274C159.28 19.6274 158.731 19.775 158.246 20.0703C157.772 20.355 157.397 20.7557 157.123 21.2725C156.849 21.7786 156.712 22.3586 156.712 23.0125V23.1548C156.712 23.8297 156.859 24.4308 157.155 24.9581C157.46 25.4748 157.877 25.8808 158.404 26.1761C158.932 26.4608 159.533 26.6032 160.208 26.6032C160.735 26.6032 161.225 26.5083 161.679 26.3185C162.143 26.1286 162.533 25.8386 162.849 25.4485L163.308 25.9705C162.949 26.4134 162.496 26.7508 161.948 26.9828C161.41 27.2043 160.824 27.315 160.192 27.315Z" fill="white"/>
<path d="M166.277 27.2517V18.9946H167.036V21.2566L166.957 21.0036C167.189 20.3392 167.579 19.8277 168.127 19.4692C168.676 19.1106 169.361 18.9314 170.184 18.9314V19.7065C170.152 19.7065 170.121 19.7065 170.089 19.7065C170.057 19.6959 170.026 19.6906 169.994 19.6906C169.077 19.6906 168.359 19.9806 167.843 20.5606C167.326 21.1301 167.068 21.9263 167.068 22.9492V27.2517H166.277Z" fill="white"/>
<path d="M110.054 44.2517V33.179H110.734L115.875 42.053H115.511L120.636 33.179H121.301L121.316 44.2517H120.526L120.51 34.397H120.731L115.875 42.7806H115.48L110.608 34.397H110.845V44.2517H110.054Z" fill="white"/>
<path d="M124.924 44.2517V35.9946H125.715V44.2517H124.924ZM125.319 33.9857C125.14 33.9857 124.987 33.9225 124.861 33.7959C124.734 33.6694 124.671 33.5217 124.671 33.353C124.671 33.1737 124.734 33.0208 124.861 32.8943C124.987 32.7677 125.14 32.7045 125.319 32.7045C125.509 32.7045 125.662 32.7677 125.778 32.8943C125.905 33.0103 125.968 33.1579 125.968 33.3372C125.968 33.5165 125.905 33.6694 125.778 33.7959C125.662 33.9225 125.509 33.9857 125.319 33.9857Z" fill="white"/>
<path d="M131.136 44.315C130.451 44.315 129.808 44.2148 129.207 44.0145C128.616 43.8141 128.157 43.561 127.83 43.2552L128.194 42.6225C128.511 42.8966 128.932 43.1339 129.46 43.3343C129.987 43.5241 130.556 43.619 131.168 43.619C132.033 43.619 132.655 43.4766 133.035 43.1919C133.414 42.9072 133.604 42.5328 133.604 42.0688C133.604 41.7314 133.504 41.4677 133.303 41.2779C133.114 41.0776 132.855 40.9246 132.528 40.8192C132.201 40.7137 131.843 40.6294 131.453 40.5661C131.063 40.4923 130.672 40.4132 130.282 40.3288C129.892 40.2445 129.533 40.1232 129.207 39.965C128.88 39.8068 128.616 39.5906 128.416 39.3165C128.226 39.0317 128.131 38.6574 128.131 38.1934C128.131 37.7716 128.247 37.3919 128.479 37.0545C128.711 36.717 129.059 36.4481 129.523 36.2477C129.987 36.0368 130.567 35.9314 131.263 35.9314C131.78 35.9314 132.296 36.0052 132.813 36.1528C133.34 36.3005 133.767 36.4956 134.094 36.7381L133.731 37.3708C133.383 37.1072 132.992 36.9174 132.56 36.8014C132.128 36.6854 131.69 36.6274 131.247 36.6274C130.446 36.6274 129.855 36.775 129.475 37.0703C129.106 37.3656 128.922 37.7346 128.922 38.1776C128.922 38.5256 129.017 38.805 129.207 39.0159C129.407 39.2163 129.671 39.3745 129.997 39.4905C130.324 39.5959 130.683 39.6856 131.073 39.7594C131.463 39.8226 131.853 39.8965 132.244 39.9808C132.634 40.0652 132.992 40.1865 133.319 40.3446C133.646 40.4923 133.905 40.7032 134.094 40.9774C134.295 41.241 134.395 41.5996 134.395 42.053C134.395 42.5065 134.268 42.9019 134.015 43.2394C133.773 43.5768 133.409 43.8405 132.924 44.0303C132.439 44.2201 131.843 44.315 131.136 44.315Z" fill="white"/>
<path d="M138.69 44.315C138.005 44.315 137.361 44.2148 136.76 44.0145C136.17 43.8141 135.711 43.561 135.384 43.2552L135.748 42.6225C136.064 42.8966 136.486 43.1339 137.013 43.3343C137.541 43.5241 138.11 43.619 138.722 43.619C139.587 43.619 140.209 43.4766 140.588 43.1919C140.968 42.9072 141.158 42.5328 141.158 42.0688C141.158 41.7314 141.058 41.4677 140.857 41.2779C140.667 41.0776 140.409 40.9246 140.082 40.8192C139.755 40.7137 139.397 40.6294 139.007 40.5661C138.616 40.4923 138.226 40.4132 137.836 40.3288C137.446 40.2445 137.087 40.1232 136.76 39.965C136.433 39.8068 136.17 39.5906 135.969 39.3165C135.78 39.0317 135.685 38.6574 135.685 38.1934C135.685 37.7716 135.801 37.3919 136.033 37.0545C136.265 36.717 136.613 36.4481 137.077 36.2477C137.541 36.0368 138.121 35.9314 138.817 35.9314C139.333 35.9314 139.85 36.0052 140.367 36.1528C140.894 36.3005 141.321 36.4956 141.648 36.7381L141.284 37.3708C140.936 37.1072 140.546 36.9174 140.114 36.8014C139.681 36.6854 139.244 36.6274 138.801 36.6274C137.999 36.6274 137.409 36.775 137.029 37.0703C136.66 37.3656 136.476 37.7346 136.476 38.1776C136.476 38.5256 136.571 38.805 136.76 39.0159C136.961 39.2163 137.224 39.3745 137.551 39.4905C137.878 39.5959 138.237 39.6856 138.627 39.7594C139.017 39.8226 139.407 39.8965 139.797 39.9808C140.188 40.0652 140.546 40.1865 140.873 40.3446C141.2 40.4923 141.458 40.7032 141.648 40.9774C141.849 41.241 141.949 41.5996 141.949 42.053C141.949 42.5065 141.822 42.9019 141.569 43.2394C141.327 43.5768 140.963 43.8405 140.478 44.0303C139.993 44.2201 139.397 44.315 138.69 44.315Z" fill="white"/>
<path d="M144.156 44.2517V35.9946H144.947V44.2517H144.156ZM144.551 33.9857C144.372 33.9857 144.219 33.9225 144.093 33.7959C143.966 33.6694 143.903 33.5217 143.903 33.353C143.903 33.1737 143.966 33.0208 144.093 32.8943C144.219 32.7677 144.372 32.7045 144.551 32.7045C144.741 32.7045 144.894 32.7677 145.01 32.8943C145.137 33.0103 145.2 33.1579 145.2 33.3372C145.2 33.5165 145.137 33.6694 145.01 33.7959C144.894 33.9225 144.741 33.9857 144.551 33.9857Z" fill="white"/>
<path d="M151.507 44.315C150.716 44.315 150.01 44.1357 149.388 43.7772C148.776 43.4186 148.286 42.923 147.917 42.2903C147.558 41.6576 147.379 40.9352 147.379 40.1232C147.379 39.3006 147.558 38.5783 147.917 37.9561C148.286 37.3234 148.776 36.8277 149.388 36.4692C150.01 36.1106 150.716 35.9314 151.507 35.9314C152.298 35.9314 153.005 36.1106 153.627 36.4692C154.249 36.8277 154.74 37.3234 155.098 37.9561C155.457 38.5783 155.636 39.3006 155.636 40.1232C155.636 40.9352 155.457 41.6576 155.098 42.2903C154.74 42.923 154.249 43.4186 153.627 43.7772C153.005 44.1357 152.298 44.315 151.507 44.315ZM151.507 43.6032C152.14 43.6032 152.71 43.4608 153.216 43.1761C153.722 42.8808 154.117 42.4696 154.402 41.9423C154.687 41.415 154.829 40.8086 154.829 40.1232C154.829 39.4272 154.687 38.8208 154.402 38.3041C154.117 37.7768 153.722 37.3708 153.216 37.0861C152.71 36.7908 152.14 36.6432 151.507 36.6432C150.875 36.6432 150.305 36.7908 149.799 37.0861C149.303 37.3708 148.908 37.7768 148.613 38.3041C148.328 38.8208 148.186 39.4272 148.186 40.1232C148.186 40.8086 148.328 41.415 148.613 41.9423C148.908 42.4696 149.303 42.8808 149.799 43.1761C150.305 43.4608 150.875 43.6032 151.507 43.6032Z" fill="white"/>
<path d="M162.123 35.9314C162.798 35.9314 163.383 36.0632 163.879 36.3268C164.385 36.5799 164.775 36.9701 165.05 37.4974C165.334 38.0141 165.477 38.6574 165.477 39.4272V44.2517H164.686V39.4905C164.686 38.5625 164.448 37.8559 163.974 37.3708C163.51 36.8857 162.856 36.6432 162.012 36.6432C161.369 36.6432 160.81 36.775 160.336 37.0386C159.861 37.3023 159.497 37.6714 159.244 38.1459C159.002 38.6205 158.88 39.1899 158.88 39.8543V44.2517H158.09V35.9946H158.849V38.2883L158.738 38.0352C158.991 37.3814 159.408 36.8699 159.988 36.5008C160.568 36.1212 161.28 35.9314 162.123 35.9314Z" fill="white"/>
</svg>
